<?xml version="1.0" encoding="UTF-8" standalone="no"?>
<!-- Created with Inkscape (http://www.inkscape.org/) -->

<svg
   xmlns:dc="http://purl.org/dc/elements/1.1/"
   xmlns:cc="http://creativecommons.org/ns#"
   xmlns:rdf="http://www.w3.org/1999/02/22-rdf-syntax-ns#"
   xmlns:svg="http://www.w3.org/2000/svg"
   xmlns="http://www.w3.org/2000/svg"
   xmlns:sodipodi="http://sodipodi.sourceforge.net/DTD/sodipodi-0.dtd"
   xmlns:inkscape="http://www.inkscape.org/namespaces/inkscape"
   id="svg3336"
   version="1.1"
   inkscape:version="0.91 r13725"
   xml:space="preserve"
   width="744.09998"
   height="1052.3625"
   viewBox="0 0 744.09998 1052.3625"
   sodipodi:docname="phone-804792.svg"><metadata
     id="metadata3342"><rdf:RDF><cc:Work
         rdf:about=""><dc:format>image/svg+xml</dc:format><dc:type
           rdf:resource="http://purl.org/dc/dcmitype/StillImage" /><dc:title></dc:title></cc:Work></rdf:RDF></metadata><defs
     id="defs3340"><clipPath
       clipPathUnits="userSpaceOnUse"
       id="clipPath3350"><path
         d="m 0,841.89 595.28,0 L 595.28,0 0,0 0,841.89 Z"
         id="path3352"
         inkscape:connector-curvature="0" /></clipPath></defs><sodipodi:namedview
     pagecolor="#ffffff"
     bordercolor="#666666"
     borderopacity="1"
     objecttolerance="10"
     gridtolerance="10"
     guidetolerance="10"
     inkscape:pageopacity="0"
     inkscape:pageshadow="2"
     inkscape:window-width="1440"
     inkscape:window-height="897"
     id="namedview3338"
     showgrid="false"
     inkscape:zoom="0.66326952"
     inkscape:cx="372.04999"
     inkscape:cy="526.18127"
     inkscape:window-x="-8"
     inkscape:window-y="-8"
     inkscape:window-maximized="1"
     inkscape:current-layer="g3344" /><g
     id="g3344"
     inkscape:groupmode="layer"
     inkscape:label="phone-804792"
     transform="matrix(1.25,0,0,-1.25,0,1052.3625)"><g
       id="g3346"><g
         id="g3348"
         clip-path="url(#clipPath3350)"><path
           d="m 332.641,676.267 -70,0 0,-5.5 70,0 0,5.5 z m -78.528,-472.666 -24,-12 24,-12 0,24 z m 103,0 c -6.628,0 -12,-5.373 -12,-12 0,-6.629 5.372,-12 12,-12 6.628,0 12,5.371 12,12 0,6.627 -5.372,12 -12,12 m -42.667,0 -24,0 0,-24 24,0 0,24 z m 113.028,440.07 c 0,6.405 -5.928,11.596 -13.241,11.596 l -233.186,0 c -7.313,0 -13.24,-5.191 -13.24,-11.596 l 0,-417.477 c 0,-6.402 5.927,-11.593 13.24,-11.593 l 233.186,0 c 7.313,0 13.241,5.191 13.241,11.593 l 0,417.477 z m 31.169,-461.736 c 0,-17.221 -13.961,-31.182 -31.182,-31.182 l -259.643,0 c -17.22,0 -31.18,13.961 -31.18,31.182 l 0,478.02 c 0,17.22 13.96,31.181 31.18,31.181 l 259.643,0 c 17.221,0 31.182,-13.961 31.182,-31.181 l 0,-478.02 z"
           style="fill:#2b2b2a;fill-opacity:1;fill-rule:nonzero;stroke:none"
           id="path3354"
           inkscape:connector-curvature="0" /></g></g></g></svg>